<?xml version="1.0" encoding="UTF-8"?>
<svg width="41px" height="41px" viewBox="0 0 41 41" version="1.1" xmlns="http://www.w3.org/2000/svg" xmlns:xlink="http://www.w3.org/1999/xlink">
    <title>bn_icon</title>
    <g id="Page-1" stroke="none" stroke-width="1" fill="none" fill-rule="evenodd">
        <g id="首页--pc" transform="translate(-461.000000, -20.000000)" fill-rule="nonzero">
            <g id="Group-19" transform="translate(461.000000, 20.000000)">
                <path d="M41,20.5 C41,31.82174 31.82215,41 20.5,41 C9.17805499,41 0,31.82174 0,20.5 C0,9.17784998 9.17805499,0 20.5,0 C31.82215,0 41,9.17784998 41,20.5" id="Path" fill="#212121"></path>
                <path d="M27.2581606,23.0391667 L31,26.7467778 L20.6521209,37 L10.363039,26.8046296 L14.1046729,23.0968148 L20.6521209,29.5847778 L27.2581606,23.0391667 Z M7.8797865,16.6552963 L11.6218316,20.3631111 L11.4836789,20.5002037 L11.5589227,20.5751667 L7.81728889,24.2825741 L4,20.5002037 L7.8797865,16.6552963 Z M20.0956522,15 L24.1913044,19.0002038 L20.0956522,23 L16,19.0002038 L20.0956522,15 Z M33.1579131,15.2474521 L37,19 L33.1844174,22.7266612 L29.3857391,19.0167142 L29.4030609,19.0002038 L29.3594435,18.9573991 L33.1579131,15.2474521 Z M20.6521209,4 L30.9738908,14.2277593 L27.232257,17.9351667 L20.6521209,11.4152222 L14.1673761,17.8406481 L10.4255366,14.1330371 L20.6521209,4 Z" id="Combined-Shape" fill="#F4BB0B"></path>
            </g>
        </g>
    </g>
</svg>