<?xml version="1.0" encoding="UTF-8"?>
<svg width="64px" height="64px" viewBox="0 0 64 64" version="1.1" xmlns="http://www.w3.org/2000/svg" xmlns:xlink="http://www.w3.org/1999/xlink">
    <title>bnb_01</title>
    <g id="Page-1" stroke="none" stroke-width="1" fill="none" fill-rule="evenodd">
        <g id="首页--pc" transform="translate(-784.000000, -1246.000000)">
            <g id="Group-8" transform="translate(460.000000, 390.000000)">
                <g id="Group-24" transform="translate(324.000000, 856.000000)">
                    <path d="M32,64 C14.32672,64 0,49.67296 0,32 C0,14.3264 14.32672,0 32,0 C49.6736,0 64,14.3264 64,32 C64,49.6729599 49.6736,64 32,64 Z" id="Path" fill="#5E5E5E"></path>
                    <path d="M41.8300518,35.6933334 L47.2727273,41.0862222 L32.2212668,56 L17.2553295,41.1703704 L22.697706,35.7771852 L32.2212668,45.2142222 L41.8300518,35.6933334 Z M13.6433258,26.4077037 L19.0863004,31.8008889 L18.8853511,32.0002963 L18.9947967,32.1093333 L13.5524202,37.5019259 L8,32.0002963 L13.6433258,26.4077037 Z M31.4118577,25.4545455 L37.36917,30.9093688 L31.4118577,36.3636364 L25.4545455,30.9093688 L31.4118577,25.4545455 Z M50.4115099,25.7919801 L56,30.9090909 L50.4500617,35.9909017 L44.9247115,30.9318831 L44.9499067,30.9093688 L44.8864632,30.8509988 L50.4115099,25.7919801 Z M32.2212668,8 L47.2347503,22.8767408 L41.7923738,28.2693334 L32.2212668,18.7857778 L22.7889106,28.1318518 L17.3462351,22.738963 L32.2212668,8 Z" id="Combined-Shape" fill="#9C9C9C" fill-rule="nonzero"></path>
                </g>
            </g>
        </g>
    </g>
</svg>