<?xml version="1.0" encoding="UTF-8"?>
<svg width="42px" height="42px" viewBox="0 0 42 42" version="1.1" xmlns="http://www.w3.org/2000/svg" xmlns:xlink="http://www.w3.org/1999/xlink">
    <title>identity_icon</title>
    <g id="Page-1" stroke="none" stroke-width="1" fill="none" fill-rule="evenodd">
        <g id="首页--pc" transform="translate(-510.000000, -165.000000)" stroke="#FFE347" stroke-width="2">
            <g id="Group-3" transform="translate(460.000000, 120.000000)">
                <g id="Group-4" transform="translate(50.000000, 45.000000)">
                    <g id="Group-2" transform="translate(7.000000, 13.571429)">
                        <ellipse id="Oval" cx="7" cy="5.28571429" rx="4.25" ry="4.28571429"></ellipse>
                        <path d="M14,17.6190476 C14,13.7267551 10.8659932,10.5714286 7,10.5714286 C3.13400675,10.5714286 0,13.7267551 0,17.6190476" id="Path" stroke-linecap="round"></path>
                    </g>
                    <rect id="Rectangle" x="1" y="7.52380952" width="40" height="31.4761905" rx="3.47804576"></rect>
                    <path d="M14,8.28571429 L14,5.81904762 C14,4.26213061 15.3928919,3 17.1111111,3 L24.8888889,3 C26.6071081,3 28,4.26213061 28,5.81904762 L28,8.28571429" id="Path"></path>
                    <line x1="23.6507149" y1="18.6809524" x2="35.5627899" y2="18.6809524" id="Path-2" stroke-linecap="round"></line>
                    <line x1="23.6507149" y1="25.7285714" x2="31.5203342" y2="25.7285714" id="Path-2-Copy" stroke-linecap="round"></line>
                </g>
            </g>
        </g>
    </g>
</svg>