<?xml version="1.0" encoding="UTF-8"?>
<svg width="42px" height="42px" viewBox="0 0 42 42" version="1.1" xmlns="http://www.w3.org/2000/svg" xmlns:xlink="http://www.w3.org/1999/xlink">
    <title>incomel_icon</title>
    <g id="Page-1" stroke="none" stroke-width="1" fill="none" fill-rule="evenodd">
        <g id="首页--pc" transform="translate(-508.000000, -2310.000000)">
            <g id="Group-10" transform="translate(508.000000, 2310.000000)">
                <g id="Group-29" transform="translate(3.000000, 0.000000)">
                    <rect id="Rectangle" stroke="#FFE347" stroke-width="2" x="1" y="1" width="34" height="40" rx="3.78947368"></rect>
                    <g id="Group-9" transform="translate(11.368421, 15.272727)" fill="#FFE347" fill-rule="nonzero">
                        <path d="M11.4581128,0.247291572 C12.0074743,0.64295809 12.0859545,1.35515781 11.6935534,1.90909091 L8.809,5.786 L12.0859545,5.78662269 C12.7137963,5.78662269 13.2631579,6.34055579 13.2631579,6.9736222 C13.2631579,7.60668862 12.7922765,8.16062176 12.1644348,8.16062176 L7.848,8.16 L7.848,9.743 L12.0859545,9.74328779 C12.7137963,9.74328779 13.2631579,10.2972209 13.2631579,10.9302873 C13.2631579,11.5633537 12.7922765,12.1172868 12.1644348,12.1172868 L7.848,12.117 L7.84802243,15.9948186 C7.84802243,16.7070184 7.29866088,17.1818182 6.67081904,17.1818182 C6.04297725,17.1818182 5.4936157,16.6278851 5.4936157,15.9948186 L5.493,12.117 L1.17720335,12.1172868 C0.549361557,12.1172868 0,11.5633537 0,10.9302873 C0,10.2972208 0.549361557,9.74328779 1.17720335,9.74328779 L5.493,9.743 L5.493,8.16 L1.17720335,8.16062176 C0.549361557,8.16062176 0,7.60668866 0,6.9736222 C0,6.34055575 0.549361557,5.78662269 1.17720335,5.78662269 L4.453,5.786 L1.56960448,1.90909091 C1.17720335,1.35515781 1.25568358,0.64295809 1.80504514,0.247291572 C2.3544067,-0.148374945 3.06072872,-0.0692416336 3.45312985,0.484691466 L6.631,4.758 L9.81002804,0.484691466 C10.2024292,-0.0692416336 10.9087512,-0.148374945 11.4581128,0.247291572 Z" id="Combined-Shape"></path>
                    </g>
                    <path d="M9.47368421,7.69914394 C11.2951685,8.88816414 14.1372738,9.48267424 18,9.48267424 C21.8627262,9.48267424 24.7048315,8.88816414 26.5263158,7.69914394" id="Path-7" stroke="#FFE347" stroke-width="2" stroke-linecap="round"></path>
                </g>
            </g>
        </g>
    </g>
</svg>