<?xml version="1.0" encoding="UTF-8"?>
<svg width="345px" height="113px" viewBox="0 0 345 113" version="1.1" xmlns="http://www.w3.org/2000/svg" xmlns:xlink="http://www.w3.org/1999/xlink">
    <title>bg_01</title>
    <defs>
        <rect id="path-1" x="0" y="0" width="345" height="113" rx="8"></rect>
        <linearGradient x1="15.4501134%" y1="46.523665%" x2="64.2567581%" y2="51.4225384%" id="linearGradient-3">
            <stop stop-color="#2D2E32" stop-opacity="0.177809495" offset="0%"></stop>
            <stop stop-color="#929292" stop-opacity="0.21379036" offset="100%"></stop>
        </linearGradient>
        <linearGradient x1="5.55111512e-15%" y1="19.5359137%" x2="78.6748579%" y2="78.7453615%" id="linearGradient-4">
            <stop stop-color="#FFFFFF" stop-opacity="0.0488622705" offset="0%"></stop>
            <stop stop-color="#14171D" offset="100%"></stop>
        </linearGradient>
        <linearGradient x1="50%" y1="100%" x2="50%" y2="0%" id="linearGradient-5">
            <stop stop-color="#324E5F" offset="0%"></stop>
            <stop stop-color="#1C213F" offset="100%"></stop>
        </linearGradient>
        <linearGradient x1="91.0402513%" y1="32.4869405%" x2="8.9597487%" y2="73.0294492%" id="linearGradient-6">
            <stop stop-color="#324E5F" offset="0%"></stop>
            <stop stop-color="#1C213F" offset="100%"></stop>
        </linearGradient>
        <linearGradient x1="35.6989268%" y1="34.8973526%" x2="78.6748579%" y2="78.7453615%" id="linearGradient-7">
            <stop stop-color="#FFFFFF" stop-opacity="0.0488622705" offset="0%"></stop>
            <stop stop-color="#14171D" offset="100%"></stop>
        </linearGradient>
        <linearGradient x1="50%" y1="100%" x2="50%" y2="0%" id="linearGradient-8">
            <stop stop-color="#376170" offset="0%"></stop>
            <stop stop-color="#2C3D4F" offset="100%"></stop>
        </linearGradient>
        <linearGradient x1="38.2616073%" y1="34.8973526%" x2="73.5364675%" y2="78.7453615%" id="linearGradient-9">
            <stop stop-color="#FFFFFF" stop-opacity="0.0488622705" offset="0%"></stop>
            <stop stop-color="#14171D" offset="100%"></stop>
        </linearGradient>
    </defs>
    <g id="Page-1" stroke="none" stroke-width="1" fill="none" fill-rule="evenodd">
        <g id="首页" transform="translate(-15.000000, -85.000000)">
            <g id="Group-2" transform="translate(15.000000, 85.000000)">
                <mask id="mask-2" fill="white">
                    <use xlink:href="#path-1"></use>
                </mask>
                <use id="Mask" fill="#2D2E32" xlink:href="#path-1"></use>
                <path d="M203.110644,83.122376 L277.827343,104.361737 C282.698702,105.746495 287.872067,105.649383 292.688023,104.082778 L344.591809,87.198754 L344.901148,88.1497057 L292.997362,105.03373 C287.992545,106.66177 282.616303,106.762691 277.553911,105.323629 L202.837212,84.0842673 C196.234636,82.2073842 189.154209,83.0716222 183.196942,86.4815616 L143.286174,109.326487 C136.134176,113.420291 127.484709,113.953873 119.883765,110.770171 L76,92.389191 L76.3863354,91.4668326 L120.270101,109.847813 C127.584217,112.911375 135.907289,112.397928 142.7894,108.458607 L182.700168,85.6136819 C188.891052,82.0700194 196.249143,81.1718897 203.110644,83.122376 Z M203.110644,76.122376 L277.827343,97.3617375 C282.698702,98.7464954 287.872067,98.6493828 292.688023,97.0827779 L344.591809,80.198754 L344.901148,81.1497057 L292.997362,98.0337296 C287.992545,99.66177 282.616303,99.7626909 277.553911,98.3236288 L202.837212,77.0842673 C196.234636,75.2073842 189.154209,76.0716222 183.196942,79.4815616 L143.286174,102.326487 C136.134176,106.420291 127.484709,106.953873 119.883765,103.770171 L76,85.389191 L76.3863354,84.4668326 L120.270101,102.847813 C127.584217,105.911375 135.907289,105.397928 142.7894,101.458607 L182.700168,78.6136819 C188.891052,75.0700194 196.249143,74.1718897 203.110644,76.122376 Z M203.110644,68.122376 L277.827343,89.3617375 C282.698702,90.7464954 287.872067,90.6493828 292.688023,89.0827779 L344.591809,72.198754 L344.901148,73.1497057 L292.997362,90.0337296 C287.992545,91.66177 282.616303,91.7626909 277.553911,90.3236288 L202.837212,69.0842673 C196.234636,67.2073842 189.154209,68.0716222 183.196942,71.4815616 L143.286174,94.326487 C136.134176,98.4202909 127.484709,98.9538727 119.883765,95.7701714 L76,77.389191 L76.3863354,76.4668326 L120.270101,94.847813 C127.584217,97.9113747 135.907289,97.397928 142.7894,93.4586073 L182.700168,70.6136819 C188.891052,67.0700194 196.249143,66.1718897 203.110644,68.122376 Z M203.110644,61.122376 L277.827343,82.3617375 C282.698702,83.7464954 287.872067,83.6493828 292.688023,82.0827779 L344.591809,65.198754 L344.901148,66.1497057 L292.997362,83.0337296 C287.992545,84.66177 282.616303,84.7626909 277.553911,83.3236288 L202.837212,62.0842673 C196.234636,60.2073842 189.154209,61.0716222 183.196942,64.4815616 L143.286174,87.326487 C136.134176,91.4202909 127.484709,91.9538727 119.883765,88.7701714 L76,70.389191 L76.3863354,69.4668326 L120.270101,87.847813 C127.584217,90.9113747 135.907289,90.397928 142.7894,86.4586073 L182.700168,63.6136819 C188.891052,60.0700194 196.249143,59.1718897 203.110644,61.122376 Z" id="Combined-Shape" fill="url(#linearGradient-3)" fill-rule="nonzero" mask="url(#mask-2)"></path>
                <g opacity="0.215637934" mask="url(#mask-2)" id="Group">
                    <g transform="translate(-0.201217, 4.092129) rotate(-4.000000) translate(0.201217, -4.092129) translate(-105.332796, -80.821838)">
                        <g transform="translate(0.000000, -0.000000)">
                            <polygon id="Rectangle" fill="url(#linearGradient-4)" points="122.46096 82.0257374 210.263158 47.3669751 175.604396 135.169173 87.8021978 169.827935"></polygon>
                            <polygon id="Rectangle-Copy" fill="url(#linearGradient-5)" opacity="0.5" points="34.6587623 34.6587623 122.46096 -2.84217094e-14 210.263158 47.3669751 122.46096 82.0257374"></polygon>
                            <polygon id="Rectangle-Copy-2" fill="url(#linearGradient-6)" points="-4.26325641e-14 122.46096 34.6587623 34.6587623 122.46096 82.0257374 87.8021978 169.827935"></polygon>
                        </g>
                        <g transform="translate(43.245614, 29.078947)">
                            <polygon id="Rectangle" fill="url(#linearGradient-7)" points="79.0350877 52.9385965 135.701754 30.5701754 113.333333 87.2368421 56.6666667 109.605263"></polygon>
                            <polygon id="Rectangle-Copy" fill="url(#linearGradient-8)" points="22.3684211 22.3684211 79.0350877 -2.84217094e-14 135.701754 30.5701754 79.0350877 52.9385965"></polygon>
                            <polygon id="Rectangle-Copy-2" fill="url(#linearGradient-9)" points="-1.59872116e-14 79.0350877 22.3684211 22.3684211 79.0350877 52.9385965 56.6666667 109.605263"></polygon>
                        </g>
                    </g>
                </g>
            </g>
        </g>
    </g>
</svg>