<?xml version="1.0" encoding="UTF-8"?>
<svg width="42px" height="42px" viewBox="0 0 42 42" version="1.1" xmlns="http://www.w3.org/2000/svg" xmlns:xlink="http://www.w3.org/1999/xlink">
    <title>prize pool_icon</title>
    <g id="Page-1" stroke="none" stroke-width="1" fill="none" fill-rule="evenodd">
        <g id="首页--pc" transform="translate(-511.000000, -1615.000000)" stroke="#FFE347" stroke-width="2.02139037">
            <g id="Group-3" transform="translate(511.000000, 1615.000000)">
                <g id="Group-26" transform="translate(0.000000, 4.000000)">
                    <path d="M1.30773131,13.7137036 L6.13182468,31.1689593 C6.59409931,32.8416304 8.11603059,34 9.85140565,34 L31.6785212,34 C33.3859442,34 34.8904023,32.8779754 35.3773039,31.2414485 L40.6195467,13.6217224 C40.9234322,12.6003318 40.3417793,11.5259832 39.3203886,11.2220978 C38.8126888,11.0710463 38.2652175,11.1353543 37.8063403,11.3999433 L31.4335668,15.0744912 C30.5103976,15.6067916 29.3305063,15.2899297 28.7982059,14.3667605 C28.7899231,14.3523955 28.7818257,14.3379243 28.7739159,14.3233505 L22.6232969,2.99090577 C22.1149711,2.05432148 20.9436401,1.70714931 20.0070558,2.21547503 C19.7003993,2.38191112 19.4446113,2.62838414 19.2669191,2.92865852 L12.494511,14.3730585 C11.9518071,15.2901505 10.7684087,15.5936519 9.85131677,15.050948 C9.84144574,15.0451066 9.831627,15.0391774 9.8218617,15.033161 L4.17962926,11.5569602 C3.27236082,10.9979887 2.08373848,11.2803391 1.52476696,12.1876075 C1.24354381,12.6440617 1.16491495,13.1969441 1.30773131,13.7137036 Z" id="Path-4"></path>
                    <polyline id="Path-6" stroke-linecap="round" stroke-linejoin="round" points="16.4690619 21.67844 21.3686735 27.3451067 26.0145165 21.67844"></polyline>
                </g>
            </g>
        </g>
    </g>
</svg>