<?xml version="1.0" encoding="UTF-8"?>
<svg width="42px" height="42px" viewBox="0 0 42 42" version="1.1" xmlns="http://www.w3.org/2000/svg" xmlns:xlink="http://www.w3.org/1999/xlink">
    <title>qualifying_icon</title>
    <g id="Page-1" stroke="none" stroke-width="1" fill="none" fill-rule="evenodd">
        <g id="首页--pc" transform="translate(-510.000000, -438.000000)">
            <g id="Group-8" transform="translate(460.000000, 390.000000)">
                <g id="Group-7" transform="translate(50.000000, 48.000000)">
                    <g id="Group-22" transform="translate(0.000000, 2.000000)">
                        <path d="M25.4783423,1 C26.0740124,1 26.6132905,1.24144301 27.003651,1.63180355 C27.3940115,2.02216409 27.6354545,2.56144215 27.6354545,3.15711225 L27.6354545,3.15711225 L27.6354545,37 L14.3627273,37 L14.3627273,3.15711225 C14.3627273,2.56144215 14.6041703,2.02216409 14.9945308,1.63180355 C15.3848914,1.24144301 15.9241694,1 16.5198395,1 L16.5198395,1 Z" id="Rectangle" stroke="#FFE347" stroke-width="2"></path>
                        <text id="1" font-family="PingFangSC-Semibold, PingFang SC" font-size="9" font-weight="500" fill="#FFE347">
                            <tspan x="19.155" y="12.7366432">1</tspan>
                        </text>
                        <text id="2" font-family="PingFangSC-Semibold, PingFang SC" font-size="9" font-weight="500" fill="#FFE347">
                            <tspan x="4.95636364" y="22.2366432">2</tspan>
                        </text>
                        <text id="3" font-family="PingFangSC-Semibold, PingFang SC" font-size="9" font-weight="500" fill="#FFE347">
                            <tspan x="31.6836364" y="31.7366432">3</tspan>
                        </text>
                        <path d="M12.115615,10.5 C12.7112851,10.5 13.2505632,10.741443 13.6409237,11.1318035 C14.0312843,11.5221641 14.2727273,12.0614421 14.2727273,12.6571122 L14.2727273,12.6571122 L14.2727273,37 L3.15711225,37 C2.56144215,37 2.02216409,36.758557 1.63180355,36.3681965 C1.24144301,35.9778359 1,35.4385579 1,34.8428878 L1,34.8428878 L1,12.6571122 C1,12.0614421 1.24144301,11.5221641 1.63180355,11.1318035 C2.02216409,10.741443 2.56144215,10.5 3.15711225,10.5 L3.15711225,10.5 Z" id="Rectangle-Copy" stroke="#FFE347" stroke-width="2"></path>
                        <path d="M38.8410696,20 C39.4367397,20 39.9760177,20.241443 40.3663783,20.6318035 C40.7567388,21.0221641 40.9981818,21.5614421 40.9981818,22.1571122 L40.9981818,22.1571122 L40.9981818,34.8428878 C40.9981818,35.4385579 40.7567388,35.9778359 40.3663783,36.3681965 C39.9760177,36.758557 39.4367397,37 38.8410696,37 L38.8410696,37 L27.7254545,37 L27.7254545,22.1571122 C27.7254545,21.5614421 27.9668976,21.0221641 28.3572581,20.6318035 C28.7476186,20.241443 29.2868967,20 29.8825668,20 L29.8825668,20 Z" id="Rectangle-Copy-5" stroke="#FFE347" stroke-width="2"></path>
                    </g>
                </g>
            </g>
        </g>
    </g>
</svg>