<?xml version="1.0" encoding="UTF-8"?>
<svg width="1000px" height="240px" viewBox="0 0 1000 240" version="1.1" xmlns="http://www.w3.org/2000/svg" xmlns:xlink="http://www.w3.org/1999/xlink">
    <title>bg_01</title>
    <defs>
        <rect id="path-1" x="0" y="0" width="1000" height="240" rx="24"></rect>
        <linearGradient x1="15.4501134%" y1="46.5350384%" x2="64.2567581%" y2="51.4178843%" id="linearGradient-3">
            <stop stop-color="#2D2E32" stop-opacity="0.177809495" offset="0%"></stop>
            <stop stop-color="#929292" stop-opacity="0.21379036" offset="100%"></stop>
        </linearGradient>
        <linearGradient x1="5.55111512e-15%" y1="19.6355817%" x2="78.6748579%" y2="78.6513165%" id="linearGradient-4">
            <stop stop-color="#FFFFFF" stop-opacity="0.0488622705" offset="0%"></stop>
            <stop stop-color="#14171D" offset="100%"></stop>
        </linearGradient>
        <linearGradient x1="50%" y1="100%" x2="50%" y2="0%" id="linearGradient-5">
            <stop stop-color="#324E5F" offset="0%"></stop>
            <stop stop-color="#1C213F" offset="100%"></stop>
        </linearGradient>
        <linearGradient x1="91.1749616%" y1="32.4869405%" x2="8.82503839%" y2="73.0294492%" id="linearGradient-6">
            <stop stop-color="#324E5F" offset="0%"></stop>
            <stop stop-color="#1C213F" offset="100%"></stop>
        </linearGradient>
        <linearGradient x1="35.6989268%" y1="34.9467633%" x2="78.6748579%" y2="78.6513165%" id="linearGradient-7">
            <stop stop-color="#FFFFFF" stop-opacity="0.0488622705" offset="0%"></stop>
            <stop stop-color="#14171D" offset="100%"></stop>
        </linearGradient>
        <linearGradient x1="50%" y1="100%" x2="50%" y2="0%" id="linearGradient-8">
            <stop stop-color="#376170" offset="0%"></stop>
            <stop stop-color="#2C3D4F" offset="100%"></stop>
        </linearGradient>
        <linearGradient x1="38.2230772%" y1="34.8973526%" x2="73.6137234%" y2="78.7453615%" id="linearGradient-9">
            <stop stop-color="#FFFFFF" stop-opacity="0.0488622705" offset="0%"></stop>
            <stop stop-color="#14171D" offset="100%"></stop>
        </linearGradient>
    </defs>
    <g id="Page-1" stroke="none" stroke-width="1" fill="none" fill-rule="evenodd">
        <g id="首页--pc" transform="translate(-460.000000, -120.000000)">
            <g id="Group-2" transform="translate(460.000000, 120.000000)">
                <mask id="mask-2" fill="white">
                    <use xlink:href="#path-1"></use>
                </mask>
                <use id="Mask" fill="#2D2E32" xlink:href="#path-1"></use>
                <path d="M588.726505,153.539973 L805.296647,215.00255 C819.416526,219.00977 834.411787,218.728745 848.371081,214.195295 L998.816837,165.336217 L999.713474,168.088086 L849.267717,216.947164 C834.761,221.658396 819.17769,221.950442 804.50409,217.786076 L587.933948,156.323499 C568.796045,150.892165 548.273068,153.393101 531.00563,163.260802 L415.322244,229.369569 C394.591815,241.21624 369.520897,242.760322 347.489175,233.54731 L220.289855,180.356331 L221.409668,177.687206 L348.608988,230.878185 C369.809324,239.743536 393.93417,238.257721 413.882318,226.858094 L529.565704,160.749327 C547.510297,150.494658 568.838097,147.895645 588.726505,153.539973 Z M588.726505,133.283336 L805.296647,194.745913 C819.416526,198.753133 834.411787,198.472108 848.371081,193.938658 L998.816837,145.07958 L999.713474,147.831449 L849.267717,196.690527 C834.761,201.401759 819.17769,201.693805 804.50409,197.529439 L587.933948,136.066862 C568.796045,130.635528 548.273068,133.136464 531.00563,143.004165 L415.322244,209.112931 C394.591815,220.959603 369.520897,222.503685 347.489175,213.290673 L220.289855,160.099694 L221.409668,157.430569 L348.608988,210.621547 C369.809324,219.486898 393.93417,218.001084 413.882318,206.601456 L529.565704,140.49269 C547.510297,130.238021 568.838097,127.639008 588.726505,133.283336 Z M588.726505,110.132893 L805.296647,171.59547 C819.416526,175.60269 834.411787,175.321665 848.371081,170.788216 L998.816837,121.929138 L999.713474,124.681007 L849.267717,173.540085 C834.761,178.251317 819.17769,178.543362 804.50409,174.378996 L587.933948,112.916419 C568.796045,107.485085 548.273068,109.986022 531.00563,119.853722 L415.322244,185.962489 C394.591815,197.80916 369.520897,199.353242 347.489175,190.14023 L220.289855,136.949252 L221.409668,134.280126 L348.608988,187.471105 C369.809324,196.336456 393.93417,194.850641 413.882318,183.451014 L529.565704,117.342248 C547.510297,107.087578 568.838097,104.488566 588.726505,110.132893 Z M588.726505,89.8762563 L805.296647,151.338833 C819.416526,155.346053 834.411787,155.065028 848.371081,150.531579 L998.816837,101.672501 L999.713474,104.42437 L849.267717,153.283448 C834.761,157.994679 819.17769,158.286725 804.50409,154.122359 L587.933948,92.6597823 C568.796045,87.2284481 548.273068,89.7293847 531.00563,99.5970853 L415.322244,165.705852 C394.591815,177.552523 369.520897,179.096605 347.489175,169.883593 L220.289855,116.692615 L221.409668,114.023489 L348.608988,167.214468 C369.809324,176.079819 393.93417,174.594004 413.882318,163.194377 L529.565704,97.0856103 C547.510297,86.8309411 568.838097,84.2319286 588.726505,89.8762563 Z" id="Combined-Shape" fill="url(#linearGradient-3)" fill-rule="nonzero" mask="url(#mask-2)"></path>
                <g opacity="0.215637934" mask="url(#mask-2)" id="Group">
                    <g transform="translate(-0.583239, 11.841825) rotate(-4.000000) translate(0.583239, -11.841825) translate(-305.312453, -233.882665)">
                        <g transform="translate(0.000000, 0.000000)">
                            <polygon id="Rectangle" fill="url(#linearGradient-4)" points="354.959305 237.366514 609.458429 137.070804 508.998248 391.15327 254.499124 491.448981"></polygon>
                            <polygon id="Rectangle-Copy" fill="url(#linearGradient-5)" opacity="0.5" points="100.460181 100.29571 354.959305 -8.51349525e-14 609.458429 137.070804 354.959305 237.366514"></polygon>
                            <polygon id="Rectangle-Copy-2" fill="url(#linearGradient-6)" points="-4.54747351e-13 354.378177 100.460181 100.29571 354.959305 237.366514 254.499124 491.448981"></polygon>
                        </g>
                        <g transform="translate(125.349606, 84.148812)">
                            <polygon id="Rectangle" fill="url(#linearGradient-7)" points="229.087211 153.193992 393.338419 88.464136 328.502415 252.446437 164.251208 317.176293"></polygon>
                            <polygon id="Rectangle-Copy" fill="url(#linearGradient-8)" points="64.8360031 64.7298556 229.087211 -5.6756635e-14 393.338419 88.464136 229.087211 153.193992"></polygon>
                            <polygon id="Rectangle-Copy-2" fill="url(#linearGradient-9)" points="0 228.712156 64.8360031 64.7298556 229.087211 153.193992 164.251208 317.176293"></polygon>
                        </g>
                    </g>
                </g>
            </g>
        </g>
    </g>
</svg>