<?xml version="1.0" encoding="UTF-8"?>
<svg width="28px" height="28px" viewBox="0 0 28 28" version="1.1" xmlns="http://www.w3.org/2000/svg" xmlns:xlink="http://www.w3.org/1999/xlink">
    <title>switch language_icon</title>
    <g id="Page-1" stroke="none" stroke-width="1" fill="none" fill-rule="evenodd">
        <g id="首页--pc" transform="translate(-1252.000000, -25.000000)" stroke="#FFE347" stroke-width="1.5">
            <g id="Group-20" transform="translate(1252.000000, 25.000000)">
                <circle id="Oval" cx="14" cy="14" r="13.25"></circle>
                <ellipse id="Oval-Copy" cx="14" cy="14" rx="6.25" ry="13.25"></ellipse>
                <path d="M3.9425148,5.58934021 C6.95653578,7.19867817 10.3090308,8.00334715 14,8.00334715 C17.6909692,8.00334715 21.056894,7.19867817 24.0977745,5.58934021" id="Path-3" stroke-linecap="round"></path>
                <path d="M3.9425148,19.7823367 C6.95653578,21.3916747 10.3090308,22.1963437 14,22.1963437 C17.6909692,22.1963437 21.056894,21.3916747 24.0977745,19.7823367" id="Path-3-Copy" stroke-linecap="round" transform="translate(14.020145, 20.989340) scale(1, -1) translate(-14.020145, -20.989340) "></path>
                <line x1="0.842353058" y1="14" x2="27.1788437" y2="14" id="Path-5" stroke-linecap="round"></line>
                <line x1="0.842353058" y1="14" x2="27.1788437" y2="14" id="Path-5" stroke-linecap="round" transform="translate(14.010598, 14.000000) rotate(90.000000) translate(-14.010598, -14.000000) "></line>
            </g>
        </g>
    </g>
</svg>